<svg xmlns="http://www.w3.org/2000/svg" xmlns:xlink="http://www.w3.org/1999/xlink" width="314.363" height="184.97" viewBox="0 0 314.363 184.97"><defs><clipPath id="a"><rect width="106.839" height="184.97" fill="#fff"/></clipPath><clipPath id="b"><rect width="47.977" height="69.002" fill="#fac300"/></clipPath><clipPath id="c"><rect width="202.878" height="37.648" fill="#fff"/></clipPath></defs><g transform="translate(-850.4 -385.8)"><g transform="translate(1057.923 385.8)"><g clip-path="url(#a)"><path d="M12.9,467.637A30.76,30.76,0,0,0,.093,495.532C1.138,510.246,14.745,521.75,29.118,520.4c12.353-1.161,21.71-12.284,20.477-24.34-.99-9.69-9.765-17.163-19.286-16.425-8.69.674-15.121,9.061-13.168,17.173,1.544,6.412,8.285,10.267,14.056,8.038,4.414-1.705,6.579-6.734,4.546-10.661a5.556,5.556,0,0,0-4.158-3.034c-.353-.062-.645-.087-.75.376-.092.408.04-.174.433.436a4.8,4.8,0,0,1,2.827,6,5.706,5.706,0,0,1-6.181,3.922c-5.429-.756-7.884-6.953-4.65-11.738,3.364-4.977,10.195-5.49,14.87-1.116,4.843,4.531,4.949,12.057.245,17.369-5.1,5.76-13.347,6.661-20.1,2.2-8.107-5.361-10.642-15.065-6.33-24.236,5.067-10.779,17.036-15.824,28.638-12.074a29.119,29.119,0,0,1,19.48,34.536,36.954,36.954,0,0,1-40.959,28.359c-.411-.054-.821-.116-1.233-.157-.342-.034-.734-.25-.862.356-.113.533.2.624.572.755a29.764,29.764,0,0,0,8.607,1.823c16.7.7,29.238-6.38,37.536-20.728a36.245,36.245,0,0,0,2.736-32.182,37.151,37.151,0,0,0-36.9-23.754c-5.567.4-10.648,2.337-16.664,6.345" transform="translate(0 -353.033)" fill="#fff"/><path d="M146.082,359.194A12.609,12.609,0,0,1,125.588,364a20.369,20.369,0,0,1-3.36-3.87c-.543-.869-.935-.868-1.743-.246a15.575,15.575,0,0,1-9.145,3.406c-5.554.182-9.8-2.691-12.375-8.331a26.226,26.226,0,0,1-1.7-5.251c.979,1.067,1.641,1.861,2.377,2.578,3.9,3.8,8.2,3.978,12.313.421a13.617,13.617,0,0,1,5.16-2.989c1.821-.52,3.629-.641,5.235.611a1.921,1.921,0,0,0,1.506.288,6.978,6.978,0,0,1,6.759,3.38c.629.928,1.321,1.814,1.945,2.746,3.12,4.662,7.078,5.064,12.291,2.971.406-.163.674-.673,1.228-.521" transform="translate(-74.455 -267.411)" fill="#fac300"/><path d="M328.993,381.6c4.048,14.277.943,26.545-7.838,37.642-2.846,3.6-6.883,5.174-10.856,6.978-.353-.654.18-.829.373-1.126,3.274-5.046,7.358-9.526,10.447-14.69a33.43,33.43,0,0,0,4.648-17.1,78.814,78.814,0,0,1-11.364,9.41c-4.171,2.931-8.863,3.639-13.824,3.888.046-.211.029-.433.117-.49,3.926-2.509,7.4-5.633,11.423-8.044a49.067,49.067,0,0,0,13.063-11.834c1.161-1.461,2.367-2.885,3.81-4.639" transform="translate(-230.081 -292.102)" fill="#fff"/><path d="M148.22,301.788a3.483,3.483,0,0,1-3.41-3.708,3.554,3.554,0,0,1,7.1.289,3.446,3.446,0,0,1-3.692,3.418" transform="translate(-110.842 -225.585)" fill="#fff"/><path d="M259.608,319.932a3.467,3.467,0,0,1,3.542,3.406,3.4,3.4,0,0,1-3.375,3.546A3.484,3.484,0,0,1,256.2,323.5a3.547,3.547,0,0,1,3.41-3.573" transform="translate(-196.109 -244.895)" fill="#fff"/><path d="M172.019,34.335c-1.68-5.041-5.508-8.34-10.194-10.54a5.118,5.118,0,0,1-3.086-3.633,37.491,37.491,0,0,0-5.19-11.2c-4.556-6.64-10.871-9.572-18.87-8.855-6.55.587-11.889,3.639-16.407,8.27-.612.628-1.007,1.032-2.031.426a18.448,18.448,0,0,0-15.9-1.451c-8.322,2.844-11.9,9.536-13.357,17.692a14.827,14.827,0,0,0,4.734,14.118,46.057,46.057,0,0,0,8.34,6.262c2.752,1.635,2.753,1.626,2.05,4.8-.115.518-.175,1.048-.277,1.569-.389,1.982.3,4.348-.61,5.9-.944,1.614-3.279,2.369-4.875,3.661a24.694,24.694,0,0,0-6.394,7.306c11.839-12.481,28.1-13.348,39.038-7.577,9.672,5.1,19.809,19.18,14.872,37.935a4.964,4.964,0,0,0,1.213-2.213A31.392,31.392,0,0,0,142.7,69.671c-2.179-3.831-2.209-3.872.553-7.478.466-.608,1.014-1.151,1.5-1.745A3.592,3.592,0,0,1,148,59.09a26.48,26.48,0,0,0,18.35-5.752c6.657-5.312,8.292-11.132,5.67-19m-3.625,8.542c-.565,3.353-2.892,5.489-5.248,7.53-4.206,3.645-9.26,5.311-14.73,5.927-1.071.121-1.464-.588-2.01-1.157a31.338,31.338,0,0,0-23.737-10.1c-.627,0-1.254.082-1.881.126l-.05.305c1.508.408,3.019.805,4.523,1.225A58.487,58.487,0,0,1,144,55.755c1.043.755,1.094,1.129.182,2.058a17.721,17.721,0,0,0-4.146,7.979,45.652,45.652,0,0,0-3.3-3.5c-9.82-8.375-20.8-9.963-32.789-5.481-.452.169-.916.815-1.41.327-.356-.352.072-.885.147-1.333.106-.639.278-1.268.444-1.9,1.094-4.131,1.391-4.669,4.14-7.489a72.822,72.822,0,0,1-8.955-6.615q-.983-.894-1.933-1.823c-5.5-5.4-6.717-9.779-1.677-19.193,3.373-6.3,10.126-8.779,17.2-6.79a19.915,19.915,0,0,1,4.546,2.362c2.039,1.2,2,1.178,3.326-.69A26.109,26.109,0,0,1,132.546,3.7c8.461-2.95,16.165-.07,20.679,7.638a31.019,31.019,0,0,1,3.531,9.223,4.623,4.623,0,0,1,.112,1.924c-1.646,7.193-4.136,13.86-11.318,17.485-.083.042-.118.179-.366.579a15.384,15.384,0,0,0,5.579-2.749c3.925-2.977,6.849-6.666,7.625-11.7.121-.789.306-1.088,1.084-.612,5.839,3.573,10.3,9.2,8.921,17.4" transform="translate(-66.369 0)" fill="#fff"/><path d="M360.714,381.6s9.688,34.108-18.694,44.621c0,0,21.557-14.484,18.694-44.621" transform="translate(-261.803 -292.102)" fill="#fff"/><path d="M130.146,589.5a6.72,6.72,0,0,0-4.622-1.111l3.552,1.756Z" transform="translate(-96.084 -450.362)" fill="#fff"/></g></g><g transform="translate(1043.19 459.516)"><g clip-path="url(#b)"><path d="M20.786,30.589c.717-.037,1.367-.182,1.809.576.142.244.289.485.44.724A13.575,13.575,0,0,1,27.691,30c-.089-.133-.136-.2-.136-.2-1.133-1.178-1.421-2.192-.45-3.582a7.848,7.848,0,0,0,1.084-3.388A20.1,20.1,0,0,0,12.209.241C6.761-.781,2.542,1.469.514,6.486-.3,8.5.052,10.6.233,12.643.646,17.3,1.978,21.68,5.283,25.171c4.211,4.448,9.6,5.719,15.5,5.418" transform="translate(0 0)" fill="#fac300"/><path d="M43.342,33.556c-.269-2.07-.143-3.814-.431-5.528A19.112,19.112,0,0,0,27.187,11.81c-.46-.09-1.21.117-1.251-.52-.044-.679.725-.778,1.25-.925a7.9,7.9,0,0,1,4.843.094A20.013,20.013,0,0,1,45.22,24.845a8.913,8.913,0,0,1-1.878,8.711" transform="translate(-19.454 -7.525)" fill="#6c3afa"/><path d="M79.5,111.515l2.069-1.835h.378s20.8,31.2,22.022,41.6c0,0-19.9-34.151-26.772-38.945s2.3-.817,2.3-.817" transform="translate(-55.995 -82.275)" fill="#fac300"/></g></g><g transform="translate(850.4 509.694)"><g clip-path="url(#c)"><path d="M760.186,27.854c0,3.047-.031,6.094.017,9.14.015.961-.22,1.389-1.272,1.321a27.454,27.454,0,0,0-3.961,0c-1.211.1-1.417-.41-1.409-1.491.047-6.042-.01-12.085.052-18.127.012-1.208-.315-1.607-1.531-1.524-1.518.1-3.049-.017-4.572.042-.89.035-1.3-.189-1.257-1.17.069-1.418.059-2.844.005-4.264-.033-.87.282-1.162,1.145-1.13,1.523.056,3.054-.06,4.572.041,1.23.082,1.7-.243,1.64-1.568-.112-2.33,0-4.671-.048-7.006-.019-.9.224-1.291,1.191-1.243a42.451,42.451,0,0,0,4.268,0c.992-.052,1.189.376,1.173,1.253-.044,2.437.018,4.875-.034,7.312-.02.913.241,1.276,1.2,1.238,1.624-.063,3.254.033,4.878-.036.952-.04,1.244.3,1.2,1.22a35.942,35.942,0,0,0,.005,3.959c.064,1.04-.238,1.455-1.341,1.394-1.571-.086-3.152.026-4.725-.037-.945-.038-1.224.3-1.211,1.225.045,3.148.017,6.3.017,9.445" transform="translate(-595.633 -0.698)" fill="#fff"/><path d="M373.283,76.97c-2.334-.016-4.665.1-6.94-.689A13.835,13.835,0,0,1,370.5,49.364c2.185-.046,4.373.016,6.558-.032.839-.018,1.2.216,1.164,1.11-.057,1.471-.05,2.947,0,4.418.028.829-.331,1.041-1.089,1.029-2.033-.032-4.068-.025-6.1,0a7.287,7.287,0,1,0-.069,14.57q3.049.067,6.1,0c.834-.017,1.2.213,1.162,1.109-.06,1.42-.054,2.845,0,4.266.031.852-.254,1.19-1.129,1.153-1.269-.055-2.542-.014-3.813-.014" transform="translate(-284.959 -39.375)" fill="#fff"/><path d="M632.619,68.276c.146-2.3-.3-5.106.259-7.873A13.672,13.672,0,0,1,645.9,49.357c1.727-.054,3.459.016,5.186-.044.887-.03,1.143.31,1.111,1.155-.054,1.42-.053,2.846.006,4.267.036.864-.263,1.174-1.13,1.144-1.473-.052-2.949-.033-4.424-.012a7.254,7.254,0,0,0-7.49,7.383c-.064,4.115-.053,8.231,0,12.346.014,1.059-.274,1.45-1.361,1.375a29.842,29.842,0,0,0-3.812,0c-1.039.062-1.431-.246-1.391-1.348.082-2.284.025-4.572.025-7.348" transform="translate(-504.913 -39.359)" fill="#fff"/><path d="M183.28,1.134c.453.407.271.947.271,1.43q.015,17.236,0,34.473c0,.485.172,1.022-.262,1.437a1.016,1.016,0,0,1-.373-.46,6.265,6.265,0,0,1-.188-2.106q-.008-16.1,0-32.2a6.511,6.511,0,0,1,.179-2.109,1.006,1.006,0,0,1,.372-.463" transform="translate(-145.845 -0.905)" fill="#fff"/><path d="M153.493,38.46c-.426-.421-.255-.959-.256-1.446q-.015-17.226,0-34.453c0-.487-.173-1.026.26-1.443l.227.2a4.137,4.137,0,0,1,.33,2.223q.011,16.25,0,32.5A5.873,5.873,0,0,1,153.871,38a1,1,0,0,1-.378.464" transform="translate(-122.28 -0.892)" fill="#fff"/><path d="M154.66.225a21.375,21.375,0,0,1,6.22,0l-.12.131a9.24,9.24,0,0,1-5.978,0L154.66.225" transform="translate(-123.445 0.001)" fill="#fff"/><path d="M895.816,63.623c-.052-8.48-6.321-14.482-14.75-14.122a13.778,13.778,0,0,0-12.9,13.377c-.162,7.329,5.313,13.638,12.389,14.129,2.582.179,5.184.041,7.776.1.863.019,1.014-.388,1-1.117-.035-1.371-.068-2.746.01-4.114.057-1-.257-1.329-1.275-1.3-2.184.06-4.374.053-6.557-.028a6.671,6.671,0,0,1-5.974-3.96c5.974,0,11.666,0,17.357,0,2.945,0,2.945.007,2.927-2.964m-19.964-3.692c.491-2.059,2.619-3.6,5.354-3.892a6.734,6.734,0,0,1,7.1,3.892Z" transform="translate(-692.941 -39.498)" fill="#fff"/><path d="M506.156,61.143c-.825-6.79-6.918-11.774-14-11.674a13.83,13.83,0,0,0-3.134,27.213,14.149,14.149,0,0,0,10.778-1.6c-.357,1.888.506,2.133,1.851,2.017a37.285,37.285,0,0,1,3.812-.016c.62.01.951-.191.934-.867-.124-5.025.365-10.071-.243-15.073M492.493,70.55a7.279,7.279,0,1,1,7.27-7.2,7.2,7.2,0,0,1-7.27,7.2" transform="translate(-382.059 -39.484)" fill="#fff"/><path d="M230.787,75.875c-.058-2.13-.018-4.263-.018-6.828-.1-2.2.143-4.838-.16-7.474a13.821,13.821,0,1,0-7.481,14.072c.339-.158,1.028-.887.994.183-.038,1.223.557,1.285,1.482,1.25,1.319-.05,2.644-.059,3.961.007.93.046,1.248-.271,1.222-1.21M216.8,70.537a7.281,7.281,0,1,1,7.36-7.137,7.263,7.263,0,0,1-7.36,7.137" transform="translate(-162.053 -39.473)" fill="#fff"/><path d="M27.642,63.465A13.678,13.678,0,0,0,13.2,49.483a13.83,13.83,0,0,0-2.617,27.266,14.233,14.233,0,0,0,10.611-1.705c-.4,1.849.348,2.178,1.674,2.063a23.6,23.6,0,0,1,3.507,0c1,.063,1.312-.277,1.3-1.288-.054-4.116-.01-8.233-.029-12.349M13.765,70.554A7.277,7.277,0,1,1,21.1,63.231a7.223,7.223,0,0,1-7.336,7.323" transform="translate(0 -39.49)" fill="#fff"/><path d="M155.005,1.766l5.978,0c.024,2.683.073,5.366.069,8.049q-.019,14.512-.066,29.025l-5.985,0c-.022-6.484-.061-12.969-.061-19.453,0-5.876.042-11.752.065-17.627" transform="translate(-123.668 -1.41)" fill="#fff"/></g></g></g></svg>