<?xml version="1.0" encoding="UTF-8"?>
<svg id="Layer_2" data-name="Layer 2" xmlns="http://www.w3.org/2000/svg" viewBox="0 0 5371.93 2459.32">
  <defs>
    <style>
      .cls-1 {
        fill: none;
        fill-rule: evenodd;
        stroke: #fff;
        stroke-linecap: round;
        stroke-linejoin: round;
        stroke-width: 12px;
      }
    </style>
  </defs>
  <g id="Layer_2-2" data-name="Layer 2">
    <path class="cls-1" d="M6,2336.5s1210.15-10.44,1156.95-19.7c-53.19-9.24-249.78,27.76-249.78,27.76,0,0-2.32,34.69,0,41.64,2.31,6.93,117.95,64.76,129.52,67.07,11.56,2.31,638.34-69.38,638.34-69.38l4.63-37.01s-631.41,71.7-640.67,67.08c-9.25-4.64-134.14-50.89-108.7-55.52,25.43-4.62,268.29-39.31,268.29-39.31,0,0-62.45-242.85-50.88-245.16,11.57-2.31,161.89-9.26,161.89-9.26,0,0,76.33,252.1,67.08,254.42-9.26,2.31-120.28,27.75-120.28,27.75,0,0-48.57-245.17-62.44-254.41-13.88-9.26-462.84,1.29-475.43,5.27-12.58,3.97-51.9-16.84-51.9-16.84l-92.52-1144.86,46.26-34.69s1130.98,145.71,1135.61,154.96c4.63,9.26,134.14,948.27,124.89,952.9-9.26,4.62-555.08,53.19-555.08,53.19l-601.35,13.88s-90.65-1104.48-85.8-1116.57c4.85-12.1,1080.33,131.29,1084.95,138.23,4.63,6.93,106.39,784.05,101.76,793.31-4.61,9.24-1070.84,67.07-1070.84,67.07,0,0-78.67-885.42-78.67-920.1,0-23.98,269.58,38.38,402.54,6.22,102.96-24.91-46.93-160.54,82.85-240.5,32.37-19.95,65.95-36.73,65.95-36.73,0,0-9.82-68.23.39-52.92,10.21,15.33,66.38,28.08,84.25,12.77,17.87-15.32,15.31-30.63,15.31-30.63,0,0,137.86,66.36,165.95,81.69,28.08,15.32-260.4,17.88-260.4,17.88l2.55,22.97s232.32,5.11,250.19-12.76c17.87-17.88-76.59-30.63-94.46-30.63s-17.87-48.51-25.53-38.3c-7.66,10.21-35.74,56.17-33.19,40.85,2.56-15.33,7.66-40.85,2.56-33.18-5.11,7.65-58.72,20.42-99.57,7.65-40.85-12.76-25.53-56.16,17.87-89.36,43.4-33.18,178.71-61.27,196.57-66.36,17.87-5.11,45.96-135.31,30.64-127.65-15.31,7.65,63.83,306.36,74.04,306.36s163.39-40.85,168.5-51.06c5.1-10.23-74.04-283.39-81.7-291.05-7.66-7.67-137.86,20.42-145.52,33.18-7.66,12.76,71.49,283.39,71.49,283.39,0,0,130.2-28.09,135.31-35.75,4.47-6.7-48.35-198.16-66.41-247.07-4.1-11.1-4.98-14.86-11.79-14.45-16.71,1-108.38,27.66-115.51,24.09-3.83-1.91-41.17,5.76-12.44-22.02,28.72-27.76,152.23-63.18,191.47-26.8,39.25,36.39,69.89,92.87,45,100.52-24.89,7.67-3.83-73.71,82.33-73.71s121.59,84.26,120.63,143.61c-.95,59.35-77.55,111.05-162.75,88.07-85.21-22.97-77.55-134.03-62.23-157.97,15.32-23.93,45.95-41.16,67.97-29.68,22.02,11.49,31.6,26.82,31.6,32.56s-39.26,44.99-39.26,51.7,24.89,43.08,31.6,43.08,50.73-.95,53.61-5.74c2.87-4.79,11.49-34.47,10.53-44.05-.96-9.57-43.08-39.25-39.25-47.87,3.83-8.62,44.04-41.16,47.87-41.16s35.42,32.54,39.25,46.91c3.83,14.36,8.62,37.33,7.66,40.21-.96,2.87-40.21.95-43.08,4.78-2.87,3.83-22.02,42.13-22.02,48.82s22.98,42.13,19.15,45.01c-3.83,2.88-55.53,19.14-72.76,12.44-17.23-6.71-38.29-6.71-36.38-15.32,1.92-8.62,17.24-31.59,17.24-31.59,0,0-22.02-50.75-25.85-50.75s-36.38,12.45-42.12,7.66c-5.75-4.78-23.94-31.59-21.06-85.21,2.87-53.6,74.68-101.47,111.05-94.78,36.38,6.71,120.63-42.13,135.95-84.24,15.32-42.13,34.46-130.21,53.61-149.35,19.15-19.14,76.59-61.27,76.59-61.27,0,0,45.95,76.59,118.72,65.1,72.76-11.49,57.44-107.23,57.44-107.23,0,0,187.65,0,210.62,26.8,22.97,26.8,22.97,130.2,22.97,130.2l-130.2,3.83s137.86,340.83,130.2,352.32c-7.65,11.49-260.4,95.73-268.06,72.76-7.65-22.98-122.54-344.66-122.54-344.66,0,0-11.49,84.26-34.46,84.26s-61.27-26.82-61.27-38.31-38.29-168.48,30.64-145.51c68.93,22.97,68.93,176.16,118.71,168.5,49.79-7.66,222.12-88.07,199.14-42.13-22.99,45.96-134.05,172.33-91.92,164.67,42.13-7.64,114.89-45.94,107.23-11.48-7.66,34.46-111.06,68.93-84.24,103.4,26.8,34.46,202.96,30.63,172.33,76.58-30.65,45.96-294.88,3.83-325.52,3.83s-183.82,260.42-183.82,283.39,191.48,118.73,202.96,111.06c11.49-7.66,122.55-168.49,122.55-134.03s-11.49,164.67,3.83,176.16c15.31,11.48,195.3,22.97,199.13,3.83,3.83-19.16-19.14-367.65-19.14-367.65,0,0-15.33,30.64-126.39,26.8-111.06-3.82-210.62-42.11-179.99-57.43,30.65-15.31,157.02,19.15,210.63,19.15s141.69-3.83,176.16-38.3,76.59-218.29,76.59-218.29c0,0-45.96,183.82-11.49,168.5,34.46-15.31,95.73-268.06,95.73-268.06,0,0-84.24,3.83-91.9-65.1-7.66-68.93,88.09-107.23,122.55-53.61,34.46,53.61,30.64,95.72-15.33,103.38-45.96,7.67-107.23-15.31-91.9-68.93,15.31-53.61,38.3-65.1,45.94-76.58,7.67-11.49,22.99-157.02,22.99-157.02h68.93s15.31-30.64,0-53.61c-15.33-22.99-68.93-3.83-68.93-3.83l19.14,80.41,53.62,3.83s-26.82,126.38-30.65,149.35c-3.82,22.99,45.96,95.74-7.65,107.23-53.62,11.48-84.26,30.63-99.57,57.44-15.32,26.82-3.83,53.62-3.83,53.62,0,0,65.1-95.75,134.03-61.27,68.93,34.47,7.66,122.54-3.83,118.71-11.49-3.83,164.67,49.79,164.67,49.79,0,0-42.13,107.21-34.46,153.17,7.66,45.96,160.83,57.43,195.3,114.89,34.47,57.44,49.79,107.23,19.16,114.88-30.64,7.66-199.13-30.64-298.7-53.61-99.58-22.98-183.82-57.44-183.82-57.44,0,0,19.14-107.23,57.44-145.52,38.3-38.3,72.76-141.7,72.76-141.7,0,0,3.83,118.73-15.31,141.7-19.16,22.97-57.45,15.31-34.46,19.14,22.97,3.83,49.77,34.46,57.44,80.42,7.67,45.96,15.31,61.27,0,61.27s-134.03-26.8-141.69,0c-7.66,26.8,7.66,42.13,7.66,42.13l137.86,42.12,26.8-15.32s80.42,7.66,95.73,19.16c15.33,11.48,26.8,34.46,53.62,38.3,26.8,3.82,168.5,7.64,168.5,7.64,0,0,38.3-145.51-53.62-157-91.9-11.49-103.4,84.24-114.88,61.27-11.49-22.97,15.31-57.44,7.64-72.76-7.64-15.31-88.07,0-103.39-88.07-15.31-88.09,26.82-187.65,45.96-206.8,19.16-19.16-30.64-38.29-30.64-103.39s95.74-137.86,172.33-153.19l76.59-15.31-57.45,428.9,149.36-7.66-42.13-421.24-30.63-11.49h111.06s-38.3-237.43,30.63-191.47c68.93,45.94,80.43,202.96,65.1,202.96s-68.93-7.66-45.94-11.49c22.97-3.83,118.7-15.32,126.37-3.83,7.66,11.49,91.9,363.81,91.9,363.81l-268.06,61.27s84.26-91.92,95.73-95.73c11.49-3.83,126.39-19.16,76.59-126.39-49.79-107.23-168.5-76.59-179.99,7.66-11.48,84.26,45.96,118.72,134.03,141.69,88.08,22.98,145.52,95.74,130.21,126.37-15.33,30.64-302.54,84.26-302.54,84.26l260.41,130.2,386.77-65.1s-264.23-107.23-279.54-107.23-371.47,65.1-371.47,65.1l11.49,88.08,248.92,111.05s-7.66-61.27,0-49.78c7.66,11.48,7.66,53.61,26.8,53.61s363.8-88.07,363.8-88.07c0,0,0-57.45-11.48-38.3-11.49,19.14-7.66,294.87-19.15,298.7-11.48,3.83-325.5,72.76-325.5,72.76,0,0-3.83-210.63,0-176.16,3.83,34.46,3.83,164.67-22.97,157.02-26.82-7.66-252.76-130.21-252.76-141.7s3.83-149.36,11.49-114.89c7.65,34.46,3.82,157.02,3.82,168.5l333.14,160.37,187.22-17.34s190.68-318.96,218.4-315.48c27.75,3.46,249.62,180.27,253.08,197.61,3.47,17.34-242.67,398.69-256.54,405.63-13.88,6.93-273.89-145.61-273.89-162.95s260.01-384.82,277.35-384.82,208.02,131.74,208.02,149.07-221.88,377.89-232.29,370.96c-10.39-6.93-235.74-110.94-204.54-128.28,31.2-17.32,693.38-107.47,703.77-65.86,10.4,41.59-34.66,506.16-69.33,530.43-34.67,24.27-845.91,24.27-849.39,13.86-3.46-10.41-83.19-416.04-38.13-419.49,45.07-3.47,880.59-62.4,887.52-79.74,6.93-17.34,149.07-301.62,176.82-312.02,27.73-10.39,242.68-27.73,246.15-10.39,3.46,17.32,3.46,45.07,3.46,45.07,0,0-225.34,10.4-239.22,20.79-13.86,10.4-162.94,277.35-173.34,291.23-10.39,13.86-24.27,412.56-52,422.95-27.74,10.4-769.65,27.74-773.12,10.4-3.46-17.34-38.14-194.15,0-194.15s838.99-17.32,773.12-24.27c-65.88-6.93-793.92-6.93-793.92-6.93,0,0-24.27-135.21-6.93-142.14,17.34-6.93,90.14-17.34,93.6-6.93,3.47,10.4,24.27,374.42,34.67,350.16,10.39-24.27-6.93-339.75,13.86-343.23,20.79-3.46,104.01-24.27,110.94-3.46,6.93,20.79,6.93,367.48,17.34,346.68,10.39-20.79-2.36-350.2,7.23-353.08,9.57-2.86,137.86-21.06,139.77-10.52,1.92,10.52,3.83,367.63,10.54,356.13,6.69-11.48,1.91-352.3,11.48-358.05,9.57-5.74,109.15-15.31,113.93-5.74,4.79,9.57-4.78,372.41,5.74,364.77,10.52-7.66,6.71-365.72,20.11-366.67,13.4-.97,114.88-20.11,118.7-6.71,3.83,13.4-8.62,382.95.96,373.39,9.58-9.59,21.06-372.43,28.73-377.21,7.66-4.79,89.99-23.93,95.74,2.88,5.75,26.8-30.95,455.38-30.95,455.38,0,0-796.54,15.33-814.41,30.64-17.87,15.32-119.99,112.34-45.94,163.4,74.03,51.06,137.86-7.66,171.04,40.84,33.18,48.51-17.87,145.52-91.9,107.23-74.05-38.3-48.51-102.13-20.44-107.23,28.08-5.11,91.92-2.55,99.58,38.3,7.64,40.85-63.83,53.6-89.36,28.08-25.54-25.54-33.2-94.46,7.65-102.13,40.85-7.65,658.68-5.1,671.44,2.56,12.77,7.65,117.44,63.82,117.44,63.82,0,0-63.82-30.64,7.66-53.61,71.48-22.99,104.68,58.72,97.01,104.66-7.66,45.96-122.54,66.38-155.73-2.55-33.18-68.93,81.69-117.44,114.89-76.59,33.18,40.84-5.11,104.68-53.62,79.14-48.51-25.52-22.97-89.36-40.84-104.66-17.88-15.33-74.03-40.86-74.03-40.86,0,0-661.23,12.77-704.64-2.55-43.4-15.31-20.42-109.77,40.85-117.44,61.29-7.66,740.39-22.97,725.06-10.21-15.33,12.78-79.14-5.09-86.8,35.75-7.67,40.85,30.63,119.98,51.05,132.75,20.42,12.77,10.21,117.44,79.14,137.86,68.93,20.42,1050.87,10.36,1050.87,10.36"/>
  </g>
</svg>